<svg width="685" height="685" viewBox="0 0 685 685" fill="none" xmlns="http://www.w3.org/2000/svg">
<path d="M342.221 684.443C432.981 684.443 520.035 648.385 584.208 584.208C648.385 520.025 684.443 432.981 684.443 342.221C684.443 251.461 648.385 164.408 584.208 100.235C520.025 36.0573 432.981 0 342.221 0C251.461 0 164.408 36.0573 100.235 100.235C36.0573 164.417 0 251.461 0 342.221C0 432.981 36.0573 520.035 100.235 584.208C164.417 648.385 251.461 684.443 342.221 684.443ZM164.581 351.243C170.409 345.451 178.295 342.196 186.513 342.196C194.737 342.196 202.617 345.451 208.451 351.243L280.003 422.8L460.136 242.667C468.146 235.807 479.084 233.474 489.193 236.464C499.308 239.453 507.215 247.365 510.204 257.474C513.199 267.589 510.86 278.526 504.001 286.537L301.774 488.764L301.779 488.758C295.946 494.555 288.066 497.805 279.842 497.805C271.623 497.805 263.738 494.555 257.91 488.758L164.577 395.425C158.686 389.587 155.374 381.633 155.374 373.337C155.374 365.045 158.686 357.092 164.577 351.249L164.581 351.243Z" fill="#7563E7"/>
</svg>
