<svg width="607" height="607" viewBox="0 0 607 607" fill="none" xmlns="http://www.w3.org/2000/svg">
<path d="M303.333 0C136.08 0 0 136.08 0 303.333C0 470.587 136.08 606.667 303.333 606.667C470.587 606.667 606.667 470.587 606.667 303.333C606.667 136.08 470.587 0 303.333 0ZM427.776 326.667H326.667V427.776C326.667 440.656 316.214 451.109 303.333 451.109C290.453 451.109 280 440.656 280 427.776V326.667H178.891C166.01 326.667 155.557 316.214 155.557 303.333C155.557 290.453 166.01 280 178.891 280H280V178.891C280 166.01 290.453 155.557 303.333 155.557C316.214 155.557 326.667 166.01 326.667 178.891V280H427.776C440.656 280 451.109 290.453 451.109 303.333C451.109 316.214 440.656 326.667 427.776 326.667Z" fill="#7563E7"/>
</svg>
