<svg width="550" height="647" viewBox="0 0 550 647" fill="none" xmlns="http://www.w3.org/2000/svg">
<path d="M486.842 180.839H62.5755C42.0448 180.839 27.0342 197.563 29.1222 217.948L70.4142 609.122C72.5809 629.507 91.0968 646.231 111.628 646.231H437.628C458.158 646.231 476.753 629.507 478.841 609.122L520.133 217.948C522.3 197.563 507.216 180.839 486.68 180.839H486.842ZM167.562 554.772H166.442C160.765 554.772 155.838 550.444 155.317 544.694L128.812 271.334C128.213 265.209 132.692 259.688 138.89 259.089C144.937 258.49 150.536 262.97 151.135 269.167L177.64 542.527C178.239 548.653 173.76 554.173 167.562 554.772ZM285.912 543.647C285.912 549.845 280.906 554.845 274.714 554.845C268.516 554.845 263.516 549.84 263.516 543.647V270.287C263.516 264.089 268.521 259.089 274.714 259.089C280.912 259.089 285.912 264.094 285.912 270.287V543.647ZM394.105 544.767C393.506 550.59 388.652 554.845 382.98 554.845H381.86C375.662 554.246 371.183 548.798 371.782 542.6L398.287 269.24C398.886 263.042 404.485 258.563 410.532 259.162C416.73 259.761 421.209 265.209 420.61 271.407L394.105 544.767Z" fill="#7563E7"/>
<path d="M512.149 48.1613H318.309V38.828C318.309 17.4013 301.585 0 280.975 0H268.507C247.897 0 231.173 17.396 231.173 38.828V48.1613H37.3333C16.8027 48.1613 0 64.964 0 85.4947V100.427C0 120.957 16.8027 137.76 37.3333 137.76H512.147C532.677 137.76 549.48 120.957 549.48 100.427V85.4947C549.48 64.964 532.677 48.1613 512.147 48.1613H512.149Z" fill="#7563E7"/>
</svg>
